<?xml version="1.0" encoding="UTF-8"?>
<!DOCTYPE svg PUBLIC "-//W3C//DTD SVG 1.1//EN" "http://www.w3.org/Graphics/SVG/1.1/DTD/svg11.dtd">
<svg version="1.1" xmlns="http://www.w3.org/2000/svg" xmlns:xlink="http://www.w3.org/1999/xlink" x="0" y="0" width="337" height="189" viewBox="0, 0, 337, 189">
  <defs>
    <clipPath id="Clip_1">
      <path d="M0,189 L336.33,189 L336.33,0.511 L0,0.511 z"/>
    </clipPath>
  </defs>
  <g id="Layer_1">
    <g clip-path="url(#Clip_1)">
      <path d="M287.827,184.5 C287.827,186.986 227.497,189 153.077,189 C78.657,189 18.327,186.986 18.327,184.5 C18.327,182.015 78.657,180 153.077,180 C227.497,180 287.827,182.015 287.827,184.5" fill="#9A9B9A"/>
      <path d="M7.077,161.503 L286.994,161.503 C287.048,150.337 291.726,124.632 288.827,114.67 C285.077,101.78 281.994,99.501 281.994,99.501 C281.994,99.501 264.827,51.979 251.827,45.417 C238.827,38.855 135.952,40.801 128.577,47.167 C116.838,57.301 72.327,93.07 72.327,93.07 C72.327,93.07 41.702,97.569 27.327,104.834 C12.952,112.099 -1.173,121.7 0.077,133.418 C1.187,143.817 5.289,158.357 7.077,161.503" fill="#58BEC7"/>
      <path d="M0.029,131.193 C-0.016,131.944 -0.001,132.687 0.077,133.419 C1.187,143.818 5.289,158.358 7.077,161.503 L286.994,161.503 C287.027,154.582 290.242,142.216 289.494,131.334 L0.029,131.193" fill="#0F9BB4"/>
    </g>
    <path d="M104.952,161.542 C105.126,160.158 105.227,158.752 105.227,157.324 C105.227,137.65 88.213,121.7 67.227,121.7 C46.24,121.7 29.227,137.65 29.227,157.324 C29.227,158.752 29.327,160.158 29.501,161.542 L104.952,161.542" fill="#58BEC7"/>
    <path d="M270.952,161.542 C271.126,160.158 271.227,158.752 271.227,157.324 C271.227,137.65 254.214,121.7 233.227,121.7 C212.239,121.7 195.227,137.65 195.227,157.324 C195.227,158.752 195.327,160.158 195.501,161.542 L270.952,161.542" fill="#58BEC7"/>
    <path d="M4.515,156.738 C5.651,158.957 6.592,160.65 7.077,161.503 L286.994,161.503 C287.001,160.12 287.333,158.44 287.327,156.667 L4.515,156.738" fill="#316CA7"/>
    <path d="M136.994,49.167 C134.411,50.084 100.161,97.917 100.161,97.917 L190.494,101.167 L198.327,48.167 C198.327,48.167 139.578,48.251 136.994,49.167" fill="#3C4F56"/>
    <path d="M197.994,101.167 L204.827,48.167 C204.827,48.167 232.827,49.667 237.827,55.667 C242.827,61.667 261.994,101.167 261.994,101.167 L197.994,101.167" fill="#3C4F56"/>
    <path d="M98.108,161.5 C98.164,160.729 98.202,159.952 98.202,159.167 C98.202,141.494 83.876,127.167 66.202,127.167 C48.529,127.167 34.202,141.494 34.202,159.167 C34.202,159.952 34.24,160.729 34.296,161.5 L98.108,161.5" fill="#5B5C5B"/>
    <path d="M264.608,161.5 C264.664,160.729 264.702,159.952 264.702,159.167 C264.702,141.494 250.376,127.167 232.702,127.167 C215.028,127.167 200.702,141.494 200.702,159.167 C200.702,159.952 200.74,160.729 200.796,161.5 L264.608,161.5" fill="#5B5C5B"/>
    <path d="M94.327,159.167 C94.327,174.7 81.735,187.292 66.202,187.292 C50.669,187.292 38.077,174.7 38.077,159.167 C38.077,143.634 50.669,131.042 66.202,131.042 C81.735,131.042 94.327,143.634 94.327,159.167" fill="#464645"/>
    <path d="M83.077,159.167 C83.077,168.488 75.522,176.042 66.202,176.042 C56.883,176.042 49.327,168.488 49.327,159.167 C49.327,149.847 56.883,142.292 66.202,142.292 C75.522,142.292 83.077,149.847 83.077,159.167" fill="#9A9B9A"/>
    <path d="M71.202,159.167 C71.202,161.929 68.963,164.167 66.202,164.167 C63.441,164.167 61.202,161.929 61.202,159.167 C61.202,156.406 63.441,154.167 66.202,154.167 C68.963,154.167 71.202,156.406 71.202,159.167" fill="#FFFFFE"/>
    <path d="M69.369,148.75 C69.369,150.476 67.97,151.875 66.244,151.875 C64.518,151.875 63.119,150.476 63.119,148.75 C63.119,147.025 64.518,145.625 66.244,145.625 C67.97,145.625 69.369,147.025 69.369,148.75" fill="#5B5C5B"/>
    <path d="M61.075,149.562 C62.295,150.782 62.296,152.761 61.075,153.982 C59.855,155.202 57.876,155.201 56.655,153.982 C55.436,152.761 55.436,150.782 56.656,149.562 C57.876,148.342 59.855,148.342 61.075,149.562" fill="#5B5C5B"/>
    <path d="M55.785,156 C57.51,156.001 58.91,157.4 58.91,159.125 C58.91,160.852 57.511,162.25 55.784,162.251 C54.06,162.25 52.66,160.851 52.66,159.125 C52.66,157.4 54.059,156.001 55.785,156" fill="#5B5C5B"/>
    <path d="M56.597,164.294 C57.817,163.074 59.796,163.074 61.017,164.293 C62.237,165.514 62.236,167.492 61.017,168.714 C59.796,169.933 57.817,169.933 56.597,168.713 C55.377,167.492 55.377,165.515 56.597,164.294" fill="#5B5C5B"/>
    <path d="M63.035,169.584 C63.036,167.859 64.435,166.459 66.16,166.458 C67.887,166.458 69.284,167.859 69.286,169.584 C69.284,171.31 67.886,172.708 66.16,172.709 C64.435,172.708 63.036,171.31 63.035,169.584" fill="#5B5C5B"/>
    <path d="M71.328,168.773 C70.109,167.551 70.108,165.574 71.328,164.352 C72.549,163.131 74.527,163.133 75.749,164.352 C76.968,165.574 76.968,167.551 75.748,168.773 C74.527,169.991 72.55,169.991 71.328,168.773" fill="#5B5C5B"/>
    <path d="M76.619,162.334 C74.894,162.332 73.494,160.935 73.493,159.208 C73.492,157.483 74.894,156.084 76.619,156.082 C78.345,156.084 79.743,157.483 79.744,159.209 C79.743,160.934 78.345,162.332 76.619,162.334" fill="#5B5C5B"/>
    <path d="M75.808,154.04 C74.586,155.259 72.608,155.261 71.387,154.04 C70.166,152.821 70.168,150.841 71.387,149.619 C72.608,148.401 74.586,148.401 75.808,149.621 C77.026,150.841 77.026,152.819 75.808,154.04" fill="#5B5C5B"/>
    <path d="M260.952,159.167 C260.952,174.7 248.36,187.292 232.827,187.292 C217.294,187.292 204.702,174.7 204.702,159.167 C204.702,143.634 217.294,131.042 232.827,131.042 C248.36,131.042 260.952,143.634 260.952,159.167" fill="#464645"/>
    <path d="M249.702,159.167 C249.702,168.488 242.146,176.042 232.827,176.042 C223.508,176.042 215.952,168.488 215.952,159.167 C215.952,149.847 223.508,142.292 232.827,142.292 C242.146,142.292 249.702,149.847 249.702,159.167" fill="#9A9B9A"/>
    <path d="M237.827,159.167 C237.827,161.929 235.589,164.167 232.827,164.167 C230.065,164.167 227.827,161.929 227.827,159.167 C227.827,156.406 230.065,154.167 232.827,154.167 C235.589,154.167 237.827,156.406 237.827,159.167" fill="#FFFFFE"/>
    <path d="M235.993,148.75 C235.993,150.476 234.595,151.875 232.868,151.875 C231.143,151.875 229.743,150.476 229.743,148.75 C229.743,147.025 231.143,145.625 232.868,145.625 C234.595,145.625 235.993,147.025 235.993,148.75" fill="#5B5C5B"/>
    <path d="M227.7,149.562 C228.92,150.782 228.921,152.761 227.7,153.982 C226.479,155.202 224.501,155.201 223.28,153.982 C222.061,152.761 222.061,150.782 223.281,149.562 C224.501,148.342 226.479,148.342 227.7,149.562" fill="#5B5C5B"/>
    <path d="M222.41,156 C224.135,156.001 225.535,157.4 225.535,159.125 C225.535,160.852 224.136,162.25 222.409,162.251 C220.685,162.25 219.285,160.851 219.285,159.125 C219.285,157.4 220.684,156.001 222.41,156" fill="#5B5C5B"/>
    <path d="M223.222,164.294 C224.442,163.074 226.421,163.074 227.642,164.293 C228.862,165.514 228.861,167.492 227.642,168.714 C226.421,169.933 224.442,169.933 223.222,168.713 C222.002,167.492 222.002,165.515 223.222,164.294" fill="#5B5C5B"/>
    <path d="M229.66,169.584 C229.661,167.859 231.06,166.459 232.785,166.458 C234.512,166.458 235.909,167.859 235.911,169.584 C235.909,171.31 234.511,172.708 232.785,172.709 C231.06,172.708 229.661,171.31 229.66,169.584" fill="#5B5C5B"/>
    <path d="M237.953,168.773 C236.734,167.551 236.733,165.574 237.953,164.352 C239.174,163.131 241.152,163.133 242.374,164.352 C243.593,165.574 243.593,167.551 242.373,168.773 C241.152,169.991 239.175,169.991 237.953,168.773" fill="#5B5C5B"/>
    <path d="M243.244,162.334 C241.519,162.332 240.119,160.935 240.118,159.208 C240.117,157.483 241.519,156.084 243.244,156.082 C244.97,156.084 246.368,157.483 246.369,159.209 C246.368,160.934 244.97,162.332 243.244,162.334" fill="#5B5C5B"/>
    <path d="M242.433,154.04 C241.211,155.259 239.233,155.261 238.012,154.04 C236.791,152.821 236.793,150.841 238.012,149.619 C239.233,148.401 241.211,148.401 242.433,149.621 C243.651,150.841 243.651,152.819 242.433,154.04" fill="#5B5C5B"/>
    <path d="M126.827,54.417 L78.077,94.417 L93.827,97.917 L126.827,54.417" fill="#ABDCEC"/>
    <path d="M31.641,128.663 C28.6,136.351 21.518,140.976 15.822,138.995 C10.126,137.015 7.973,129.179 11.014,121.492 C14.054,113.806 21.136,109.181 26.833,111.161 C32.529,113.141 34.681,120.978 31.641,128.663" fill="#FFFFFE"/>
    <path d="M12.034,129.062 C11.903,129.589 11.827,130.138 11.827,130.702 C11.827,134.587 15.073,137.734 19.077,137.734 C23.081,137.734 26.327,134.587 26.327,130.702 C26.327,130.138 26.251,129.589 26.121,129.062 L12.034,129.062" fill="#EC932D"/>
    <path d="M182.452,113.542 C182.452,114.992 181.277,116.167 179.827,116.167 L167.827,116.167 C166.377,116.167 165.202,114.992 165.202,113.542 C165.202,112.093 166.377,110.917 167.827,110.917 L179.827,110.917 C181.277,110.917 182.452,112.093 182.452,113.542" fill="#FFFFFE"/>
    <path d="M264.452,113.542 C264.452,114.992 263.277,116.167 261.827,116.167 L249.827,116.167 C248.377,116.167 247.202,114.992 247.202,113.542 C247.202,112.093 248.377,110.917 249.827,110.917 L261.827,110.917 C263.277,110.917 264.452,112.093 264.452,113.542" fill="#FFFFFE"/>
    <path d="M104.474,104.402 L105.349,104.402 L105.349,131.621 L104.474,131.621 z" fill="#AEDDEC"/>
    <path d="M191.118,104.402 L191.869,104.402 L191.869,152.334 L191.118,152.334 z" fill="#AEDDEC"/>
    <path d="M120.675,96.29 C120.259,97.275 119.269,97.799 118.463,97.459 C117.657,97.119 117.341,96.045 117.757,95.058 L127.35,72.33 C127.766,71.345 128.756,70.821 129.562,71.161 C130.368,71.501 130.684,72.576 130.267,73.561 L120.675,96.29" fill="#A67135"/>
    <path d="M132.548,95.706 C132.448,94.06 135.785,94.203 135.46,92.75 C135.208,91.623 129.979,88.745 129.777,87.63 C128.847,82.469 125.011,78.936 123.07,79.808 C121.129,80.68 118.812,82.94 118.838,83.721 C118.851,84.054 118.514,85.224 118.54,85.509 C118.588,86.046 118.209,86.737 118.337,87.242 C118.776,88.983 120.347,89.973 121.923,90.706 C124.219,91.77 124.688,92.129 125.988,94.18 C127.155,96.019 129.13,97.28 130.259,99.161 C130.802,99.17 131.463,99.076 131.922,98.807 L132.548,95.706" fill="#F7CAA8"/>
    <path d="M151.655,77.469 L147.577,84.667 L144.761,90.06 L162.464,93.085 L163.136,85.762 L160.577,81.667 L158.667,78.178 L151.655,77.469" fill="#F7CAA8"/>
    <path d="M149.577,89.167 C149.577,89.167 149.242,83.773 148.077,83.417 C146.794,83.025 141.994,84.667 141.994,84.667 C136.141,89.765 135.955,92.703 135.661,95.167 C135.061,100.183 147.827,98.167 147.827,98.167 L163.077,98.667 C163.077,98.667 171.48,101.323 173.327,95.667 C175.081,90.299 168.813,85.293 162.577,84.667 C160.405,84.449 149.577,89.167 149.577,89.167" fill="#68BEA8"/>
    <path d="M153.441,89.806 C152.856,93.32 150.933,95.186 148.103,97.202 C146.307,98.484 145.412,97.369 143.663,98.667 C142.296,99.683 142.011,97.494 140.413,98.167 C137.1,99.564 132.479,100.295 130.163,97.917 C129.476,97.21 127.951,97.983 127.354,97.179 C126.792,96.422 125.873,95.952 125.552,95.096 C126.435,94.448 125.418,94.845 126.327,94.334 C126.946,93.984 131.646,88.054 132.327,88.001 C133.462,87.909 136.529,93.357 137.327,94.167 C139.317,96.185 137.318,95.935 138.962,94.609 C140.62,93.27 142.734,91.441 143.816,89.617 L153.441,89.806" fill="#68BEA8"/>
    <path d="M162.729,83.388 C162.022,84.522 158.621,84.868 157.577,85.417 C156.468,86.001 150.558,88.611 149.577,89.167 C148.865,89.571 152.284,90.274 153.827,90.667 C156.16,91.263 162.987,88.237 164.327,86.167 C165.262,84.723 165.346,84.732 163.729,83.743 L162.729,83.388" fill="#FFFFFE"/>
    <path d="M179.394,99.195 C179.394,99.195 165.913,102.74 167.025,99.814 L174.014,81.435 C175.126,78.509 177.95,76.867 180.321,77.769 L182.337,78.535 C184.708,79.436 185.727,82.539 184.614,85.466 L179.394,99.195" fill="#7A7B72"/>
    <path d="M148.627,83.066 C147.304,82.73 146.083,83.371 145.491,84.546 C145.216,85.092 144.643,86.701 145.194,87.248 C146.56,88.607 150.082,89.962 150.077,88.667 L148.627,83.066" fill="#FFFFFE"/>
    <path d="M204.17,24.057 C203.666,25.096 203.618,26.44 203.372,27.579 C202.912,29.703 202.677,31.802 202.111,33.897 C201.295,36.929 200.842,40.135 201.276,43.255 C201.928,47.904 205.268,50.075 208.803,52.598 C212.211,55.028 216.969,56.589 221.016,57.296 C222.473,57.55 223.95,57.68 225.411,57.926 C227.148,58.219 229.71,59.246 231.464,58.89 C231.991,58.783 232.975,58.73 233.608,58.642 C234.696,58.492 235.405,58.359 236.475,58.066 C238.53,57.505 240.187,55.527 241.886,54.3 C244.448,52.449 246.997,48.745 247.647,45.667 C248.557,41.363 246.912,37.134 247.495,32.793 C247.697,31.291 247.967,29.78 248.101,28.27 C248.269,26.39 247.441,24.845 246.469,23.27 C244.919,20.762 244.37,17.333 241.916,15.508 C240.636,14.556 239.088,14.195 237.561,13.824 C235.104,13.226 232.589,12.713 230.082,12.389 C223.509,11.538 216.462,11.317 211.067,15.801 C209.058,17.472 208.286,19.166 207.127,21.397 C206.731,22.159 206.21,23.259 205.426,23.677 L204.17,24.057" fill="#5E452E"/>
    <path d="M218.535,50.211 L217.499,55.006 L213.034,60.257 L227.159,62.671 L227.694,56.827 L224.357,55.326 L224.13,50.777 L218.535,50.211" fill="#F7CAA8"/>
    <path d="M208.24,29.316 C206.712,27.89 204.175,25.999 202.093,27.391 C200.624,28.376 199.785,31.094 200.644,32.748 C201.895,35.158 205.118,36.004 207.146,36.991 L208.24,29.316" fill="#F7CAA8"/>
    <path d="M242.532,35.723 C243.845,32.797 250.051,31.714 249.576,36.911 C249.149,41.586 243.776,42.213 240.467,43.281 L242.532,35.723" fill="#F7CAA8"/>
    <path d="M245.369,35.422 C242.089,48.678 231.622,54.021 222.809,52.894 C217.425,52.017 204.447,47.435 204.202,31.223 C203.957,15.009 209.627,7.8 226.782,8.993 C242.598,10.094 246.65,24.854 245.369,35.422" fill="#F7CAA8"/>
    <path d="M222.266,37.003 C221.946,38.18 222.888,38.555 223.93,38.506" fill-opacity="0" stroke="#5B4A45" stroke-width="0.67" stroke-linecap="round" stroke-linejoin="round"/>
    <path d="M237.729,34.84 C237.521,36.566 236.313,37.84 235.03,37.683 C233.906,37.548 233.097,36.355 233.06,34.899 C233.054,34.696 233.155,33.863 233.209,33.667 C233.596,32.261 234.664,31.296 235.788,31.433 C237.069,31.587 237.939,33.113 237.729,34.84" fill="#5B4A45"/>
    <path d="M216.495,32.265 C216.285,33.992 215.076,35.265 213.794,35.11 C212.67,34.973 211.862,33.783 211.822,32.324 C211.818,32.121 211.919,31.288 211.973,31.092 C212.359,29.687 213.426,28.722 214.553,28.858 C215.834,29.013 216.704,30.538 216.495,32.265" fill="#5B4A45"/>
    <path d="M237.062,34.423 C236.988,35.022 236.569,35.465 236.122,35.41 C235.677,35.357 235.374,34.826 235.448,34.227 C235.521,33.628 235.94,33.186 236.386,33.24 C236.831,33.294 237.134,33.823 237.062,34.423" fill="#FFFFFE"/>
    <path d="M215.646,31.827 C215.571,32.426 215.151,32.868 214.706,32.814 C214.261,32.76 213.958,32.231 214.031,31.631 C214.104,31.033 214.524,30.589 214.97,30.644 C215.415,30.698 215.717,31.227 215.646,31.827" fill="#FFFFFE"/>
    <path d="M219.702,57.295 C216.562,56.148 218.659,55.248 217.729,54.963 C216.705,54.65 212.766,56.716 212.766,56.716 C208.096,60.784 209.187,62.269 208.952,64.236 C208.473,68.237 215.48,66.726 215.48,66.726 L227.648,67.125 C227.648,67.125 233.78,69.286 235.255,64.773 C236.653,60.491 232.763,55.337 225.154,54.857 C223.416,54.747 223.257,58.65 219.702,57.295" fill="#E36D9F"/>
    <path d="M252.594,42.89 C253.938,41.495 254.97,39.03 255.609,37.346 C255.93,36.499 255.726,35.854 256.79,35.036 C257.751,35.587 258.038,36.872 258.186,37.956 C261.105,37.143 271.013,33.95 266.561,40.823 C264.862,43.443 263.046,43.743 260.509,43.716 C257.36,43.681 254.964,45.667 252.469,48.034 C251.742,47.417 251.073,46.731 250.386,46.07 L252.594,42.89" fill="#F7CAA8"/>
    <path d="M222.614,66.91 L226.708,55.515 C229.226,54.642 237.871,53.956 240.204,52.555 C241.671,51.675 243.197,50.807 244.401,49.716 C245.432,48.781 246.169,47.684 247.115,46.702 C247.822,45.967 249.331,44.192 250.328,44.14 C251.461,44.081 255.593,47.434 256.224,48.396 C255.655,49.124 254.744,49.663 254.103,50.358 C253.031,51.515 252.004,52.695 250.96,53.863 C249.124,55.916 247.146,57.827 245.181,59.768 C244.183,60.752 243.083,61.763 241.763,62.383 C239.925,63.244 237.677,63.7 235.736,64.374 C235.004,64.628 235.147,67.717 234.898,68.334 L222.614,66.91" fill="#E36D9F"/>
    <path d="M219.689,41.816 C220.095,43.019 221.369,45.726 223.162,46.017 C224.772,46.278 226.365,44.044 226.936,42.523 L219.689,41.816" fill="#E77F85"/>
    <path d="M219.689,41.816 C220.095,43.019 221.369,45.726 223.162,46.017 C224.772,46.278 226.365,44.044 226.936,42.523 L219.689,41.816 z" fill-opacity="0" stroke="#E77F85" stroke-width="1.075" stroke-linecap="round" stroke-linejoin="round"/>
    <path d="M233.229,24.068 C235.821,21.839 239.282,23.595 240.195,25.487 M210.936,21.697 C213.005,19.982 215.683,20.586 217.916,22.109 M233.438,29.31 C233.118,30.654 234.205,31.514 235.251,31.959 M212.179,26.733 C211.859,28.076 212.946,28.937 213.99,29.383" fill-opacity="0" stroke="#5B4A45" stroke-width="0.67" stroke-linecap="round" stroke-linejoin="round"/>
    <path d="M214.265,39.788 C214.075,41.354 212.446,42.445 210.628,42.225 C208.809,42.006 207.489,40.555 207.678,38.99 C207.87,37.424 209.496,36.333 211.314,36.553 C213.134,36.774 214.454,38.222 214.265,39.788" fill="#EFABA5"/>
    <path d="M239.83,42.452 C239.64,44.018 238.012,45.109 236.193,44.889 C234.374,44.668 233.055,43.219 233.244,41.654 C233.434,40.087 235.063,38.996 236.881,39.217 C238.699,39.437 240.02,40.885 239.83,42.452" fill="#EFABA5"/>
    <g>
      <path d="M223.521,11.682 C221.457,11.059 217.348,12.876 215.578,13.909 C212.884,15.484 211.096,17.524 209.003,19.763 C206.059,22.911 205.133,25.753 204.632,30.037 C201.701,20.312 206.679,0.936 219.225,0.753 C221.479,0.719 224.673,2.487 225.924,4.482 C226.965,6.144 226.565,11.659 223.843,11.724 L223.521,11.682" fill="#5E452E"/>
      <path d="M220.553,9.889 C221.448,10.744 222.601,10.953 224.52,15.267 C226.745,20.263 237.055,31.733 241.87,33.867 C240.808,31.808 234.55,21.893 234.145,19.51 C233.895,18.031 242.788,31.401 244.2,35.285 C244.749,36.797 245.03,38.039 245.932,35.875 C246.801,33.797 248.522,31.748 248.916,29.536 C250.494,20.681 249.903,11.901 243.353,5.945 C239.437,2.385 230.781,-1.4 225.766,1.597 C221.924,3.894 218.429,6.375 219.472,9.99 L220.553,9.889" fill="#5E452E"/>
    </g>
    <path d="M218.986,3.102 C216.543,1.674 211.499,5.166 210.52,8.261 C212.093,6.074 215.41,3.406 218.986,3.102" fill="#B68C67"/>
    <path d="M236.023,5.013 C239.937,5.366 244.213,9.347 245.844,13.756 C241.253,6.898 236.023,5.013 236.023,5.013" fill="#B68C67"/>
    <path d="M240.269,9.718 C243.815,11.406 246.444,16.626 246.443,21.326 C244.518,13.3 240.269,9.718 240.269,9.718" fill="#B68C67"/>
    <path d="M224.405,54.769 C224.061,55.498 223.453,55.97 222.882,56.379 C222.273,56.813 220.479,57.491 219.943,57.899 C219.556,58.195 220.986,59.923 221.9,60.034 C223.28,60.202 224.62,58.955 225.275,57.619 C225.734,56.688 225.99,55.359 225.002,54.9 L224.405,54.769" fill="#FFFFFE"/>
    <path d="M220.552,57.789 C219.809,57.476 219.31,56.891 218.877,56.337 C218.417,55.748 217.661,53.984 217.23,53.467 C216.919,53.094 215.254,54.597 215.182,55.515 C215.074,56.901 216.378,58.185 217.741,58.782 C218.692,59.2 220.03,59.399 220.446,58.391 L220.552,57.789" fill="#FFFFFE"/>
    <path d="M268.877,87.026 C269.529,86.055 270.93,84.73 271.189,83.582 C271.495,82.231 270.273,79.648 270.472,78.888 C271.415,77.705 272.466,79.782 273.475,80.394 C277.301,81.794 277.43,76.31 279.898,77.284 C280.887,78.127 279.704,79.981 279.551,80.721 C280.608,81.046 282.42,79.868 282.696,81.272 C282.905,82.337 280.862,82.49 280.139,83.095 C280.472,83.234 282.776,83.128 283.038,83.939 C282.613,85.04 280.92,84.492 279.927,84.807 C280.405,85.121 280.831,85.491 281.275,85.854 C282.509,87.138 279.486,86.842 278.424,86.95 C276.592,87.14 275.172,87.216 273.772,88.21 C273.161,88.642 272.511,88.835 271.97,89.204 C271.547,89.493 271.429,90.155 270.887,90.345 C269.825,90.715 267.996,89.253 268.33,88.084 L268.877,87.026" fill="#F7CAA8"/>
    <path d="M264.024,77.872 C266.683,75.732 269.802,80.096 266.914,82.879 C264.599,85.109 262.403,85.715 259.642,84.879 L264.024,77.872" fill="#F7CAA8"/>
    <path d="M232.902,68.697 C233.051,67.642 231.043,67.039 230.223,66.926 C229.111,66.772 228.436,67.186 227.974,68.248 C226.608,71.388 229.408,75.211 232.373,75.934 L232.902,68.697" fill="#F7CAA8"/>
    <path d="M234.062,60.408 C233.614,61.546 232.518,66.158 232.22,67.289 C231.466,70.144 231.289,76.044 232.46,79.592 C234.019,84.312 240.664,86.934 242.27,87.575 C246.295,89.185 251.4,89.612 256.31,87.061 C260.346,84.964 261.97,84.41 264.176,78.15 C265.085,75.57 266.078,72.963 266.68,70.276 C267.172,68.078 265.267,65.363 263.681,63.597 C261.467,61.13 259.395,58.86 256.238,57.264 C251.314,54.774 246.684,55.334 241.568,55.63 C239.03,55.778 235.46,56.209 234.695,58.713 L234.062,60.408" fill="#F7CAA8"/>
    <path d="M257.059,82.03 C256.453,81.881 253.757,81.808 253.405,82.749 C253.208,83.271 253.22,83.657 253.169,84.092 C253.136,84.385 253.563,84.376 253.468,84.695 C254.052,85.095 253.784,85.735 254.795,85.934 C255.375,86.049 256.401,86.022 256.955,85.67 C257.891,85.076 258.948,82.55 257.305,82.04 L257.059,82.03" fill="#F3B9A0"/>
    <path d="M234.304,76.207 C234.886,76.288 237.208,77.192 237.091,78.176 C237.026,78.725 236.846,79.073 236.696,79.49 C236.595,79.768 236.234,79.606 236.174,79.931 C235.501,80.088 235.444,80.768 234.497,80.587 C233.953,80.483 233.097,80.09 232.779,79.569 C232.248,78.691 232.469,76.003 234.091,76.128 L234.304,76.207" fill="#F3B9A0"/>
    <path d="M240.196,71.372 C239.823,72.812 238.763,73.783 237.831,73.541 C237.013,73.328 236.563,72.252 236.717,71.017 C236.738,70.846 236.918,70.152 236.984,69.991 C237.447,68.836 238.363,68.113 239.183,68.326 C240.115,68.568 240.569,69.931 240.196,71.372" fill="#5B4A45"/>
    <path d="M239.86,70.619 C239.758,71.016 239.415,71.267 239.095,71.183 C238.775,71.101 238.598,70.713 238.7,70.319 C238.803,69.924 239.146,69.671 239.467,69.755 C239.785,69.837 239.962,70.224 239.86,70.619" fill="#FFFFFE"/>
    <path d="M258.329,76.048 C257.955,77.489 256.896,78.459 255.964,78.217 C255.146,78.006 254.695,76.93 254.851,75.695 C254.872,75.524 255.051,74.828 255.117,74.668 C255.581,73.513 256.497,72.789 257.316,73.003 C258.249,73.244 258.702,74.608 258.329,76.048" fill="#5B4A45"/>
    <path d="M257.955,75.422 C257.854,75.817 257.511,76.07 257.19,75.986 C256.871,75.903 256.693,75.517 256.796,75.121 C256.898,74.727 257.241,74.474 257.563,74.557 C257.881,74.64 258.058,75.028 257.955,75.422" fill="#FFFFFE"/>
    <path d="M238.88,63.686 C239.984,63.011 242.519,64.048 242.967,64.721 M257.281,68.409 C258.537,67.923 260.896,68.903 260.946,69.73 M246.42,74.368 C245.642,75.275 245.115,76.641 246.477,77.143" fill-opacity="0" stroke="#5B4A45" stroke-width="0.65" stroke-linecap="round" stroke-linejoin="round"/>
    <path d="M243.083,79.462 C244.985,79.839 246.868,80.707 248.764,81.04 C248.738,81.61 245.689,83.105 244.821,82.795 C243.871,82.455 243.083,79.462 243.083,79.462" fill="#E77F85"/>
    <path d="M243.083,79.462 C244.985,79.839 246.868,80.707 248.764,81.04 C248.738,81.61 245.689,83.105 244.821,82.795 C243.871,82.455 243.083,79.462 243.083,79.462 z" fill-opacity="0" stroke="#E77F85" stroke-width="1.114" stroke-linecap="round" stroke-linejoin="round"/>
    <path d="M241.998,85.624 L240.764,89.666 L237.882,89.041 L236.552,93.852 L248.504,96.943 L249.386,91.965 L246.629,90.435 L246.761,86.513 L241.998,85.624" fill="#F7CAA8"/>
    <path d="M250.858,101.417 C250.903,99.872 251.445,99.905 251.499,97.922 C251.604,94.041 251.639,90.047 247.404,89.259 C245.929,88.985 245.444,93.21 242.49,91.79 C239.877,90.579 241.566,88.52 240.789,88.209 C239.933,87.867 239.368,87.654 239.368,87.654 C235.402,85.197 225.771,91.192 225.16,94.167 C224.807,95.885 223.654,100.415 222.994,101.292 L250.858,101.417" fill="#EFA92C"/>
    <path d="M241.231,88.144 C241.116,88.752 241.081,89.132 241.294,89.654 C241.521,90.209 242.436,91.257 242.59,91.773 C242.659,92.003 240.662,92.448 239.934,92.076 C238.833,91.516 238.711,90.382 238.903,89.258 C239.038,88.472 239.374,87.88 240.763,87.993 L241.231,88.144" fill="#FFFFFE"/>
    <path d="M248.091,90.117 C248.55,90.321 248.935,90.27 249.414,90.298 C250.95,90.388 252.53,90.624 254.062,90.388 C256.37,90.029 258.631,89.188 260.896,88.628 C264.095,87.836 266.831,86.346 269.72,85.051 C270.657,86.581 272.194,88.224 272.77,89.878 C268.475,91.565 265.186,95.242 260.885,97.041 C257.508,98.456 254.154,99.423 250.606,100.317 C249.011,100.719 248.171,100.453 246.534,100.2 L248.091,90.117" fill="#EFA92C"/>
    <path d="M246.746,89.214 C246.201,89.822 245.813,90.304 245.4,90.688 C244.962,91.096 243.892,91.787 243.509,92.166 C243.233,92.441 244.833,93.578 245.649,93.547 C246.884,93.501 247.792,92.378 248.089,91.278 C248.296,90.508 248.246,89.462 247.292,89.237 L246.746,89.214" fill="#FFFFFE"/>
    <path d="M237.328,60.517 C240.136,60.396 248.722,60.549 250.404,61.004 C248.508,62.178 247.828,62.399 246.491,64.179 C248.959,64.226 251.469,63.619 253.949,63.681 C254.886,63.704 255.781,63.865 256.71,63.783 C256.579,64.73 255.823,65.533 255.467,66.43 C257.475,66.199 259.541,65.943 261.524,65.733 C262.183,68.717 262.427,71.706 262.884,74.728 C263.055,75.85 263.13,76.992 263.704,77.961 C269.008,74.566 270.593,66.727 270.157,64.494 C269.721,62.262 270.507,56.037 261.212,53.568 C258.915,50.161 251.142,48.537 244.46,48.263 C241.533,48.143 236.507,51.431 234.235,53.438 C232.222,55.217 230.187,59.03 229.146,61.449 C230.194,61.675 233.467,61.204 233.467,61.204 C233.467,61.204 231.692,67.663 232.22,67.289 L237.328,60.517" fill="#4B3F29"/>
    <path d="M259.827,54.119 C260.462,52.475 260.083,50.755 260.422,49.077 C260.342,50.074 260.965,51.211 261.097,52.222 C261.149,52.626 261.046,53.212 261.212,53.568 C261.973,52.551 263.626,51.946 264.779,51.563 C263.919,52.626 262.651,53.656 262.245,55.026 C261.61,54.943 261.083,54.528 260.472,54.389 L259.827,54.119" fill="#4B3F29"/>
    <path d="M192.61,63.557 C188.863,61.202 187.278,68.598 186.965,70.689 C186.43,74.257 184.004,86.535 177.896,84.617 C184.442,88.126 195.287,85.013 197.395,77.602 C198.291,74.455 198.853,70.899 198.104,67.665 C197.744,66.107 197.147,63.373 195.252,63.098 L192.61,63.557" fill="#5E452E"/>
    <path d="M232.292,69.533 C236.567,68.387 235.904,75.921 235.586,78.011 C235.047,81.579 233.749,94.027 240.152,93.993 C232.861,95.417 223.414,89.248 223.581,81.546 C223.654,78.275 224.162,74.71 225.831,71.841 C226.637,70.458 228.012,68.021 229.902,68.317 L232.292,69.533" fill="#5E452E"/>
    <path d="M205.356,88.043 L204.485,91.772 L201.843,91.382 L200.932,95.812 L211.925,97.882 L212.42,93.328 L209.835,92.112 L209.716,88.558 L205.356,88.043" fill="#F7CAA8"/>
    <path d="M196.095,71.257 C194.789,69.998 192.617,68.321 190.792,69.498 C189.502,70.33 188.734,72.675 189.457,74.122 C190.507,76.229 193.289,77.011 195.033,77.896 L196.095,71.257" fill="#F7CAA8"/>
    <path d="M225.733,77.312 C226.915,74.793 232.312,73.946 231.825,78.446 C231.387,82.492 226.719,82.957 223.833,83.835 L225.733,77.312" fill="#F7CAA8"/>
    <path d="M227.891,76.51 C224.95,87.24 215.846,91.372 208.219,90.27 C203.563,89.443 192.354,85.439 192.261,72.226 C192.168,59.015 197.133,53.261 211.984,54.593 C225.676,55.821 229.078,67.929 227.891,76.51" fill="#F7CAA8"/>
    <path d="M208.144,78.127 C207.849,79.143 208.66,79.482 209.565,79.454" fill-opacity="0" stroke="#5B4A45" stroke-width="0.699" stroke-linecap="round" stroke-linejoin="round"/>
    <path d="M221.615,75.338 C221.41,76.832 220.341,77.918 219.233,77.764 C218.259,77.63 217.576,76.585 217.564,75.321 C217.563,75.145 217.661,74.423 217.712,74.255 C218.066,73.041 219.007,72.22 219.981,72.355 C221.089,72.508 221.822,73.843 221.615,75.338" fill="#5B4A45"/>
    <path d="M202.872,72.455 C202.664,73.949 201.598,75.034 200.487,74.882 C199.515,74.747 198.832,73.702 198.82,72.437 C198.818,72.261 198.917,71.54 198.969,71.372 C199.323,70.158 200.263,69.337 201.237,69.471 C202.345,69.625 203.076,70.96 202.872,72.455" fill="#5B4A45"/>
    <path d="M221.041,74.967 C220.969,75.486 220.598,75.863 220.213,75.809 C219.826,75.756 219.572,75.292 219.646,74.773 C219.717,74.255 220.089,73.878 220.473,73.931 C220.857,73.985 221.112,74.448 221.041,74.967" fill="#FFFFFE"/>
    <path d="M202.141,72.061 C202.068,72.58 201.698,72.957 201.313,72.904 C200.927,72.85 200.672,72.388 200.744,71.868 C200.815,71.35 201.187,70.972 201.572,71.027 C201.957,71.08 202.211,71.543 202.141,72.061" fill="#FFFFFE"/>
    <path d="M189.35,92.155 C189.226,91.327 188.759,90.039 188.905,89.218 C189.078,88.254 190.455,86.972 190.538,86.422 C190.3,85.366 189.153,86.376 188.411,86.457 C185.833,86.167 187.181,82.598 185.501,82.457 C184.708,82.692 184.913,84.254 184.808,84.778 C184.112,84.658 183.37,83.337 182.846,84.154 C182.449,84.775 183.591,85.508 183.853,86.122 C183.624,86.11 182.318,85.325 181.956,85.764 C181.916,86.605 183.038,86.779 183.532,87.292 C183.174,87.345 182.831,87.451 182.48,87.545 C181.433,87.988 183.259,88.737 183.845,89.138 C184.854,89.83 185.658,90.321 186.21,91.394 C186.452,91.864 186.778,92.19 186.995,92.596 C187.165,92.913 187.061,93.376 187.327,93.667 C187.844,94.235 189.282,93.862 189.392,93.006 L189.35,92.155" fill="#F7CAA8"/>
    <path d="M210.464,91.003 C209.113,90.843 208.932,94.692 206.175,93.588 C203.738,92.651 205.142,90.688 204.42,90.454 C203.625,90.197 203.102,90.037 203.102,90.037 C201.245,89.684 199.87,89.79 198.852,90.198 L197.877,101.292 L213.438,101.292 C213.445,100.122 213.539,99.088 213.802,98.327 C214.949,95.002 214.34,91.457 210.464,91.003" fill="#E579A5"/>
    <path d="M205.839,82.262 C206.172,83.31 207.239,85.677 208.789,85.956 C210.181,86.205 211.596,84.291 212.113,82.981 L205.839,82.262" fill="#E77F85"/>
    <path d="M205.839,82.262 C206.172,83.31 207.239,85.677 208.789,85.956 C210.181,86.205 211.596,84.291 212.113,82.981 L205.839,82.262 z" fill-opacity="0" stroke="#E77F85" stroke-width="1.122" stroke-linecap="round" stroke-linejoin="round"/>
    <path d="M218.029,66.825 C220.695,65.529 223.21,67.764 223.557,69.553 M198.273,64.292 C199.905,62.629 202.271,62.914 204.332,64.031 M217.974,70.48 C217.679,71.641 218.608,72.403 219.507,72.804 M199.209,67.595 C198.912,68.754 199.842,69.517 200.74,69.918" fill-opacity="0" stroke="#5B4A45" stroke-width="0.699" stroke-linecap="round" stroke-linejoin="round"/>
    <path d="M201.165,80.425 C200.977,81.78 199.55,82.703 197.976,82.485 C196.402,82.267 195.278,80.992 195.466,79.637 C195.653,78.281 197.082,77.359 198.653,77.577 C200.229,77.795 201.352,79.069 201.165,80.425" fill="#EFABA5"/>
    <path d="M223.294,83.108 C223.106,84.462 221.678,85.384 220.104,85.167 C218.532,84.95 217.407,83.674 217.594,82.319 C217.782,80.963 219.211,80.041 220.783,80.259 C222.357,80.477 223.482,81.752 223.294,83.108" fill="#EFABA5"/>
    <path d="M209.599,56.188 C207.819,55.618 204.229,57.135 202.681,58.005 C200.322,59.33 198.743,61.074 196.896,62.985 C194.295,65.671 193.452,68.122 192.955,71.829 C189.687,62.736 195.153,46.625 206.035,46.65 C207.99,46.654 210.734,48.233 211.789,49.98 C212.669,51.437 212.241,56.214 209.879,56.231 L209.599,56.188" fill="#5E452E"/>
    <path d="M207.055,54.591 C207.818,55.345 205.832,56.234 207.435,60.003 C209.291,64.367 211.864,64.742 217.811,66.066 C210.012,61.392 213.243,57.019 218.7,63.132 C219.565,64.102 226.021,73.569 227.187,76.957 C227.643,78.276 227.867,79.357 228.683,77.494 C229.465,75.705 230.987,73.953 231.361,72.04 C232.858,64.387 232.474,56.764 226.88,51.504 C223.537,48.36 216.087,44.951 211.695,47.477 C208.33,49.412 205.263,51.512 206.115,54.663 L207.055,54.591" fill="#5E452E"/>
    <path d="M222.119,95.674 C222.243,94.846 222.71,93.557 222.563,92.737 C222.391,91.773 221.014,90.491 220.931,89.94 C221.169,88.884 222.315,89.895 223.058,89.975 C225.636,89.686 224.288,86.117 225.968,85.976 C226.761,86.211 226.556,87.772 226.661,88.297 C227.356,88.176 228.099,86.855 228.623,87.673 C229.02,88.293 227.878,89.027 227.616,89.641 C227.845,89.628 229.15,88.843 229.513,89.283 C229.553,90.124 228.431,90.298 227.937,90.81 C228.295,90.863 228.638,90.97 228.988,91.064 C230.036,91.507 228.21,92.256 227.624,92.657 C226.614,93.348 225.811,93.839 225.259,94.913 C225.017,95.382 224.69,95.709 224.474,96.114 C224.304,96.431 224.408,96.894 224.142,97.186 C223.625,97.754 222.187,97.38 222.077,96.525 L222.119,95.674" fill="#F7CAA8"/>
    <path d="M224.916,96.634 C224.263,96.017 223.394,95.586 222.687,95.013 C222.427,94.804 221.819,94.203 221.444,94.394 C221.266,94.487 220.888,95.347 220.8,95.542 C220.659,95.855 220.487,96.085 220.37,96.378 C220.259,96.653 220.175,97.254 219.798,97.324 C219.278,97.421 218.257,96.329 217.89,96.047 C217.008,95.372 216.258,94.664 215.446,93.92 C215.099,93.601 212.481,91.7 212.018,91.604 C211.594,92.976 212.824,95.637 212.741,97.051 C212.715,97.486 212.196,98.612 212.457,98.938 C212.61,99.131 214.422,99.633 214.632,99.746 C215.382,100.148 216.116,100.549 216.865,100.94 C218.103,101.586 219.371,102.103 220.729,102.469 C221.475,102.672 221.962,102.826 222.482,102.176 C222.952,101.59 223.323,100.924 223.608,100.239 C223.942,99.437 224.2,98.631 224.479,97.819 C224.571,97.55 224.648,97.172 224.824,96.963 L224.916,96.634" fill="#E579A5"/>
    <path d="M204.816,90.369 C204.749,90.925 204.739,91.27 204.964,91.73 C205.203,92.217 206.094,93.11 206.264,93.566 C206.341,93.771 204.563,94.293 203.881,94.002 C202.852,93.562 202.673,92.544 202.778,91.516 C202.853,90.799 203.12,90.242 204.383,90.26 L204.816,90.369" fill="#FFFFFE"/>
    <path d="M209.866,91.001 C209.411,91.584 209.09,92.043 208.739,92.415 C208.367,92.811 207.441,93.501 207.119,93.867 C206.887,94.132 208.4,95.063 209.138,94.986 C210.252,94.868 211.004,93.799 211.206,92.785 C211.347,92.078 211.238,91.134 210.361,90.989 L209.866,91.001" fill="#FFFFFE"/>
    <path d="M193.805,62.594 C193.665,63.52 192.843,64.164 191.968,64.033 C191.093,63.901 190.498,63.042 190.638,62.117 C190.776,61.191 191.598,60.547 192.474,60.678 C193.348,60.81 193.943,61.668 193.805,62.594" fill="#E2659B"/>
    <path d="M233.916,69.493 C233.777,70.418 232.956,71.063 232.08,70.931 C231.206,70.799 230.609,69.941 230.75,69.016 C230.889,68.09 231.711,67.445 232.586,67.577 C233.461,67.709 234.056,68.567 233.916,69.493" fill="#E2659B"/>
    <path d="M191.516,93.626 C191.139,93.555 191.21,93.134 191.099,92.859 C190.981,92.567 190.81,92.336 190.669,92.023 C190.581,91.829 190.203,90.968 190.024,90.876 C189.649,90.684 189.042,91.285 188.782,91.494 C188.075,92.068 187.206,92.499 186.553,93.116 L186.645,93.445 C186.82,93.653 186.897,94.032 186.99,94.301 C187.269,95.112 187.526,95.918 187.86,96.721 C188.146,97.406 188.517,98.072 188.986,98.658 C189.507,99.308 190.04,99.161 190.786,98.959 L191.516,93.626" fill="#E579A5"/>
    <path d="M97.41,99.75 L102.41,95.565 C104.035,94.332 106.654,93.218 109.785,93.218 L182.99,93.167 C186.122,93.167 188.66,94.196 188.66,95.464 L188.66,100.998 L97.41,99.75" fill="#ABDCEC"/>
    <path d="M172.827,93.775 L165.077,100.357 L174.827,100.425 L178.327,93.707 L172.827,93.775" fill="#FFFFFE"/>
    <path d="M108.875,88.844 C107.956,88.714 107.003,88.648 106.021,88.671 C99.277,88.825 93.897,92.696 94.002,97.319 C94.108,101.941 99.659,105.564 106.402,105.41 C107.385,105.388 108.333,105.278 109.245,105.106 L108.875,88.844" fill="#0F9BB4"/>
    <path d="M29.327,157.167 C29.327,160.297 26.79,162.834 23.661,162.834 L7.66,162.834 C4.531,162.834 1.994,160.297 1.994,157.167 C1.994,154.038 4.531,151.501 7.66,151.501 L23.661,151.501 C26.79,151.501 29.327,154.038 29.327,157.167" fill="#316CA7"/>
    <path d="M290.66,157.167 C290.66,160.297 288.123,162.834 284.993,162.834 L277.993,162.834 C274.864,162.834 272.327,160.297 272.327,157.167 C272.327,154.038 274.864,151.501 277.993,151.501 L284.993,151.501 C288.123,151.501 290.66,154.038 290.66,157.167" fill="#316CA7"/>
    <path d="M328.33,148.166 C328.33,151.664 325.495,154.499 321.997,154.499 C318.499,154.499 315.664,151.664 315.664,148.166 C315.664,144.668 318.499,141.833 321.997,141.833 C325.495,141.833 328.33,144.668 328.33,148.166" fill="#9DD6EA"/>
    <path d="M336.33,153.5 C336.33,157.55 333.047,160.833 328.997,160.833 C324.946,160.833 321.663,157.55 321.663,153.5 C321.663,149.449 324.946,146.166 328.997,146.166 C333.047,146.166 336.33,149.449 336.33,153.5" fill="#9DD6EA"/>
    <path d="M324.33,156.499 C324.33,159.813 321.644,162.499 318.33,162.499 C315.017,162.499 312.33,159.813 312.33,156.499 C312.33,153.186 315.017,150.499 318.33,150.499 C321.644,150.499 324.33,153.186 324.33,156.499" fill="#9DD6EA"/>
    <path d="M296.327,156.5 L318.412,152.833 L319.245,159.25 L296.327,156.5" fill="#9DD6EA"/>
    <path d="M181.214,60.773 C184.73,57.293 189.685,63.324 185.92,67.777 C182.899,71.347 179.856,72.512 175.834,71.627 L181.214,60.773" fill="#F7CAA8"/>
    <path d="M137.328,47.275 C137.41,45.706 134.489,45.07 133.312,45.006 C131.714,44.918 130.807,45.611 130.277,47.23 C128.717,52.02 133.151,57.295 137.448,57.988 L137.328,47.275" fill="#F7CAA8"/>
    <path d="M137.275,38.695 C136.737,40.621 135.577,48.298 135.25,50.186 C134.426,54.951 134.685,64.562 136.653,70.12 C139.272,77.512 148.935,80.617 151.27,81.381 C157.125,83.299 164.412,83.107 171.165,78.117 C176.713,74.014 178.974,72.834 181.567,62.289 C182.636,57.942 183.82,53.539 184.445,49.071 C184.954,45.419 182.014,41.34 179.61,38.748 C176.254,35.128 173.114,31.8 168.496,29.755 C161.29,26.563 154.762,28.274 147.521,29.642 C143.933,30.319 138.896,31.637 138.028,35.833 L137.275,38.695" fill="#F7CAA8"/>
    <path d="M178.501,24.039 C173.987,18.573 164.135,13.064 151.553,15.658 C135.615,17.815 133.661,40.334 133.661,40.334 C133.661,40.334 151.607,33.638 161.486,35.827 C159.72,37.661 152.873,38.382 147.42,40.264 C147.42,40.264 158.162,42.167 173.361,37.045 C176.409,43.664 179.363,47.46 183.484,50.9 C183.484,50.9 181.862,61.176 181.608,62.414 C181.502,62.931 182.188,62.685 182.824,62.304 C187.167,59.715 189.8,49.553 190.402,47.488 C191.487,43.781 195.306,25.381 178.501,24.039" fill="#4B3F29"/>
    <path d="M172.846,66.087 C171.967,65.94 168.13,66.172 167.743,67.598 C167.527,68.392 167.589,68.959 167.571,69.606 C167.559,70.04 168.166,69.974 168.068,70.453 C168.946,70.97 168.641,71.944 170.102,72.112 C170.939,72.208 172.392,72.039 173.137,71.453 C174.396,70.464 175.591,66.614 173.196,66.07 L172.846,66.087" fill="#F3B9A0"/>
    <path d="M139.837,60.356 C140.672,60.404 144.079,61.444 144.032,62.907 C144.007,63.722 143.792,64.256 143.626,64.888 C143.52,65.312 142.987,65.117 142.941,65.603 C142.005,65.917 142.005,66.925 140.641,66.778 C139.855,66.692 138.59,66.22 138.08,65.493 C137.216,64.267 137.206,60.285 139.525,60.268 L139.837,60.356" fill="#F3B9A0"/>
    <path d="M184.321,29.413 C187.11,29.384 188.124,35.745 188.332,38.973 C187.698,38.143 187.096,37.17 186.444,36.389 C186.062,38.609 186.251,41.035 185.9,43.315 C185.649,41.327 185.296,39.306 184.828,37.428 C184.473,36.001 184.047,34.638 183.427,33.466 C182.979,32.624 182.111,31.922 181.867,30.914 C183.351,31 184.494,33.305 185.686,34.29 C185.646,33.27 184.341,29.855 183.67,29.204 L184.321,29.413" fill="#675437"/>
    <path d="M148.529,53.803 C148.225,55.664 146.967,56.99 145.721,56.77 C144.632,56.577 143.911,55.255 143.96,53.677 C143.965,53.457 144.115,52.56 144.178,52.351 C144.638,50.845 145.739,49.844 146.832,50.037 C148.075,50.258 148.836,51.943 148.529,53.803" fill="#5B4A45"/>
    <path d="M146.5,52.564 C146.413,53.075 146.001,53.426 145.572,53.351 C145.146,53.275 144.867,52.801 144.952,52.29 C145.036,51.782 145.451,51.43 145.877,51.505 C146.304,51.58 146.582,52.055 146.5,52.564" fill="#FFFFFE"/>
    <path d="M173.014,58.311 C172.708,60.169 171.45,61.498 170.207,61.278 C169.115,61.085 168.396,59.764 168.444,58.185 C168.449,57.965 168.6,57.069 168.661,56.858 C169.122,55.353 170.223,54.352 171.316,54.546 C172.559,54.765 173.322,56.452 173.014,58.311" fill="#5B4A45"/>
    <path d="M170.953,57.074 C170.865,57.584 170.453,57.935 170.025,57.859 C169.6,57.784 169.32,57.309 169.404,56.799 C169.488,56.291 169.903,55.938 170.332,56.014 C170.757,56.091 171.035,56.565 170.953,57.074" fill="#FFFFFE"/>
    <path d="M142.926,43.949 C144.945,42.795 149.953,43.959 150.916,44.885 M169.084,47.299 C171.507,46.659 176.808,48.416 177.24,49.713 M155.683,59.749 C154.688,61.179 154.105,63.256 156.099,63.823" fill-opacity="0" stroke="#5B4A45" stroke-width="0.832" stroke-linecap="round" stroke-linejoin="round"/>
    <path d="M139.827,37.974 C138.233,40.249 137.42,43.155 136.557,45.765 C136.142,47.024 135.902,48.791 135.374,49.784 C135.333,46.982 135.014,42.68 135.234,39.905 C135.414,37.694 136.343,38.694 138.217,38.029 L139.827,37.974" fill="#4B3F29"/>
    <path d="M140.229,25.428 C141.902,21.623 146.831,19.145 150.383,18.167 C152.078,17.701 155.521,17.19 157.272,17.591 C158.374,17.843 158.51,18.463 159.651,18.542 C155.138,18.613 150.665,19.354 146.407,21.01 C144.646,21.695 141.499,23.344 140.433,24.901 L140.229,25.428" fill="#7F6745"/>
    <path d="M151.562,67.661 C154.613,67.994 157.676,69.354 160.715,69.6 C160.717,70.788 155.984,74.615 154.58,74.175 C153.043,73.692 151.562,67.661 151.562,67.661" fill="#E77F85"/>
    <path d="M151.562,67.661 C154.613,67.994 157.676,69.354 160.715,69.6 C160.717,70.788 155.984,74.615 154.58,74.175 C153.043,73.692 151.562,67.661 151.562,67.661 z" fill-opacity="0" stroke="#E77F85" stroke-width="1.426" stroke-linecap="round" stroke-linejoin="round"/>
    <path d="M153.864,20.51 C149.535,19.37 143.562,15.738 144.86,10.497 C142.634,10.918 140.381,14.877 139.515,16.707 C137.68,20.582 137.484,25.076 140.658,28.324 C137.424,27.063 134.963,21.706 134.954,18.332 C131.757,21.252 131.375,28.898 132.422,32.735 C133.161,35.44 135.111,35.835 136.388,37.918 L153.864,20.51" fill="#4B3F29"/>
  </g>
</svg>
